<svg  viewBox="0 0 16 18"  xmlns="http://www.w3.org/2000/svg">
	<path d="M9.98902 0.304504C11.2599 0.304494 12.2647 0.304487 13.0507 0.410154C13.8588 0.5188 14.51 0.747331 15.0231 1.26048C15.5363 1.77363 15.7648 2.42484 15.8734 3.23293C15.9791 4.01888 15.9791 5.02366 15.9791 6.29457V12.6675C15.9791 13.8655 15.9791 14.8218 15.8766 15.5233C15.7736 16.2278 15.5431 16.8556 14.9198 17.1585C14.2965 17.4615 13.6605 17.2549 13.0429 16.9006C12.428 16.5478 11.676 15.957 10.734 15.2168L10.734 15.2168L10.0766 14.7003C9.52046 14.2633 9.1377 13.9636 8.81632 13.7681C8.50648 13.5796 8.30171 13.5189 8.10869 13.5189C7.91566 13.5189 7.7109 13.5796 7.40105 13.7681C7.07968 13.9636 6.69692 14.2633 6.1408 14.7003L5.48341 15.2168L5.48339 15.2168C4.54137 15.957 3.7894 16.5478 3.17451 16.9006C2.55689 17.2549 1.92084 17.4615 1.29756 17.1585C0.674288 16.8556 0.443739 16.2278 0.340769 15.5233C0.238253 14.8218 0.238266 13.8655 0.238281 12.6675V12.6675V6.29459V6.29457C0.238272 5.02366 0.238264 4.01888 0.343932 3.23293C0.452577 2.42484 0.681108 1.77363 1.19426 1.26048C1.70741 0.747331 2.35862 0.5188 3.16671 0.410154C3.95266 0.304487 4.95744 0.304494 6.22835 0.304504H6.22836H9.98901H9.98902Z" />
</svg>
