<svg  viewBox="0 0 17 16"  xmlns="http://www.w3.org/2000/svg">
<path fill-rule="evenodd" clip-rule="evenodd" d="M8.77737 1.07022C8.89774 0.976595 9.06629 0.976595 9.18666 1.07022L15.1867 5.73688C15.2679 5.80003 15.3153 5.89714 15.3153 6V13.3333C15.3153 13.7754 15.1398 14.1993 14.8272 14.5118C14.5146 14.8244 14.0907 15 13.6487 15H4.31535C3.87332 15 3.4494 14.8244 3.13684 14.5118C2.82428 14.1993 2.64868 13.7754 2.64868 13.3333V6C2.64868 5.89714 2.69617 5.80003 2.77737 5.73688L8.77737 1.07022ZM3.31535 6.16303V13.3333C3.31535 13.5986 3.42071 13.8529 3.60824 14.0404C3.79578 14.228 4.05013 14.3333 4.31535 14.3333H13.6487C13.9139 14.3333 14.1683 14.228 14.3558 14.0404C14.5433 13.8529 14.6487 13.5986 14.6487 13.3333V6.16303L8.98201 1.75562L3.31535 6.16303Z" />
<path fill-rule="evenodd" clip-rule="evenodd" d="M6.64868 7.99996C6.64868 7.81586 6.79792 7.66663 6.98201 7.66663H10.982C11.1661 7.66663 11.3153 7.81586 11.3153 7.99996V14.6666C11.3153 14.8507 11.1661 15 10.982 15C10.7979 15 10.6487 14.8507 10.6487 14.6666V8.33329H7.31535V14.6666C7.31535 14.8507 7.16611 15 6.98201 15C6.79792 15 6.64868 14.8507 6.64868 14.6666V7.99996Z" />
</svg>
