<svg viewBox="0 0 17 16" xmlns="http://www.w3.org/2000/svg">
	<path fill-rule="evenodd" clip-rule="evenodd" d="M9.4385 10.562L9.89209 11.0506L8.02184 12.7869L9.89209 14.5232L9.4385 15.0118L7.04199 12.7869L9.4385 10.562Z" />
	<path fill-rule="evenodd" clip-rule="evenodd" d="M12.7707 4.98368C12.6113 5.07573 12.5567 5.27959 12.6487 5.43902C13.084 6.193 13.3002 7.05353 13.2729 7.92372C13.2457 8.79391 12.976 9.63921 12.4943 10.3644C12.0126 11.0897 11.3381 11.666 10.5466 12.0287C9.75505 12.3913 8.87802 12.5257 8.01424 12.4169C7.83158 12.3939 7.66486 12.5233 7.64184 12.7059C7.61883 12.8886 7.74824 13.0553 7.93089 13.0783C8.91782 13.2027 9.91987 13.049 10.8242 12.6347C11.7286 12.2204 12.4993 11.5619 13.0497 10.7333C13.6 9.90466 13.9081 8.93885 13.9393 7.94461C13.9704 6.95036 13.7234 5.96715 13.2261 5.10569C13.134 4.94626 12.9302 4.89163 12.7707 4.98368Z" />
	<path fill-rule="evenodd" clip-rule="evenodd" d="M4.97342 11.1174C5.13285 11.0253 5.18747 10.8215 5.09543 10.6621C4.6538 9.89713 4.43783 9.02278 4.47252 8.14021C4.50721 7.25764 4.79114 6.40294 5.29144 5.67504C5.79174 4.94714 6.48796 4.37581 7.2995 4.02719C8.11104 3.67857 9.00472 3.56691 9.87709 3.70513C10.0589 3.73394 10.2297 3.6099 10.2585 3.42807C10.2873 3.24624 10.1633 3.07549 9.98142 3.04668C8.98469 2.88875 7.9636 3.01633 7.03637 3.41465C6.10913 3.81297 5.31366 4.46575 4.74204 5.29742C4.17041 6.12908 3.846 7.10564 3.80637 8.11403C3.76673 9.12242 4.01349 10.1214 4.51808 10.9954C4.61012 11.1548 4.81399 11.2094 4.97342 11.1174Z" />
	<path fill-rule="evenodd" clip-rule="evenodd" d="M8.3054 1.08923L7.85181 1.57781L9.72206 3.31413L7.85181 5.05046L8.3054 5.53903L10.7019 3.31413L8.3054 1.08923Z" />
</svg>
