<svg  viewBox="0 0 17 16" xmlns="http://www.w3.org/2000/svg">
<path fill-rule="evenodd" clip-rule="evenodd" d="M7.54759 2.203H10.0547C10.902 2.203 11.5718 2.20299 12.0958 2.27344C12.6345 2.34587 13.0687 2.49822 13.4108 2.84032C13.7529 3.18242 13.9052 3.61656 13.9776 4.15529C14.0481 4.67925 14.0481 5.3491 14.0481 6.19638V10.445C14.0481 11.2437 14.0481 11.8812 13.9798 12.3489C13.9111 12.8186 13.7574 13.2371 13.3419 13.439C12.9264 13.641 12.5023 13.5033 12.0906 13.2671C11.6807 13.0319 11.1793 12.638 10.5513 12.1445L10.1131 11.8002C9.74232 11.5089 9.48714 11.3091 9.27289 11.1787C9.06633 11.0531 8.92982 11.0126 8.80114 11.0126C8.67245 11.0126 8.53594 11.0531 8.32938 11.1787C8.11513 11.3091 7.85996 11.5089 7.48921 11.8002L7.05095 12.1445C6.42293 12.638 5.92161 13.0319 5.51168 13.2671C5.09994 13.5033 4.6759 13.641 4.26039 13.439C3.84487 13.2371 3.69117 12.8186 3.62252 12.3489C3.55418 11.8812 3.55419 11.2437 3.5542 10.445L3.5542 6.19639C3.55419 5.34911 3.55419 4.67926 3.62463 4.15529C3.69706 3.61656 3.84942 3.18242 4.19152 2.84032C4.53362 2.49822 4.96776 2.34587 5.50649 2.27344C6.03045 2.20299 6.70031 2.203 7.54759 2.203ZM5.59532 2.93416C5.13051 2.99665 4.86051 3.11414 4.66292 3.31172C4.46533 3.50931 4.34785 3.77932 4.28535 4.24412C4.22157 4.71851 4.22087 5.34351 4.22087 6.22154V10.4151C4.22087 11.2504 4.22174 11.8389 4.28218 12.2524C4.34318 12.6698 4.44876 12.7893 4.55181 12.8394C4.65486 12.8895 4.81409 12.8987 5.17994 12.6888C5.5425 12.4808 6.00572 12.1179 6.66259 11.6018L7.09358 11.2632C7.44409 10.9878 7.73048 10.7628 7.98289 10.6092C8.24688 10.4486 8.50496 10.3459 8.80114 10.3459C9.09731 10.3459 9.3554 10.4486 9.61939 10.6092C9.8718 10.7628 10.1582 10.9878 10.5087 11.2632L10.9397 11.6018C11.5966 12.1179 12.0598 12.4808 12.4223 12.6888C12.7882 12.8987 12.9474 12.8895 13.0505 12.8394C13.1535 12.7893 13.2591 12.6698 13.3201 12.2524C13.3805 11.8389 13.3814 11.2504 13.3814 10.4151V6.22154C13.3814 5.34351 13.3807 4.71851 13.3169 4.24412C13.2544 3.77932 13.1369 3.50931 12.9394 3.31172C12.7418 3.11414 12.4718 2.99665 12.007 2.93416C11.5326 2.87038 10.9076 2.86967 10.0295 2.86967H7.57274C6.6947 2.86967 6.06971 2.87038 5.59532 2.93416Z" />
</svg>
