<svg viewBox="0 0 17 16" xmlns="http://www.w3.org/2000/svg">
	<path fill-rule="evenodd" clip-rule="evenodd" d="M15.69 7.97792C15.69 11.6824 12.6869 14.6855 8.98244 14.6855C5.27797 14.6855 2.2749 11.6824 2.2749 7.97792C2.2749 4.27345 5.27797 1.27039 8.98244 1.27039C12.6869 1.27039 15.69 4.27345 15.69 7.97792ZM8.98244 14.0188C12.3187 14.0188 15.0233 11.3142 15.0233 7.97792C15.0233 4.64164 12.3187 1.93705 8.98244 1.93705C5.64616 1.93705 2.94157 4.64164 2.94157 7.97792C2.94157 11.3142 5.64616 14.0188 8.98244 14.0188Z" />
	<path fill-rule="evenodd" clip-rule="evenodd" d="M8.98245 6.04594C7.91544 6.04594 7.05046 6.91092 7.05046 7.97793C7.05046 9.04494 7.91544 9.90992 8.98245 9.90992C10.0495 9.90992 10.9144 9.04494 10.9144 7.97793C10.9144 6.91092 10.0495 6.04594 8.98245 6.04594ZM6.38379 7.97793C6.38379 6.54273 7.54725 5.37927 8.98245 5.37927C10.4176 5.37927 11.5811 6.54273 11.5811 7.97793C11.5811 9.41313 10.4176 10.5766 8.98245 10.5766C7.54725 10.5766 6.38379 9.41313 6.38379 7.97793Z" />
	<path fill-rule="evenodd" clip-rule="evenodd" d="M13.1794 7.9639C13.2398 7.35914 12.4842 7.0378 12.0905 7.50088L11.5016 8.19375L10.9937 7.76198L11.5826 7.06912C12.3997 6.10785 13.9683 6.7749 13.8427 8.03024C13.776 8.69756 14.6692 8.98059 14.999 8.39661L15.0571 8.29374L15.6376 8.62154L15.5795 8.72441C14.895 9.93662 13.0408 9.34911 13.1794 7.9639Z" />
	<path fill-rule="evenodd" clip-rule="evenodd" d="M4.73884 8.70292C4.91224 9.53524 6.10709 9.51688 6.25484 8.67963L6.38889 7.92002L7.04541 8.03588L6.91136 8.79548C6.63602 10.3558 4.40933 10.39 4.08619 8.83888L3.92519 8.06613C3.8208 7.56503 3.13332 7.49625 2.93172 7.96674L2.31894 7.70417C2.77732 6.6344 4.34048 6.79078 4.57785 7.93016L4.73884 8.70292Z" />
	<path fill-rule="evenodd" clip-rule="evenodd" d="M7.09468 3.78056C7.07025 3.78056 7.05046 3.80036 7.05046 3.82478C7.05046 3.8492 7.07025 3.869 7.09468 3.869C7.1191 3.869 7.1389 3.8492 7.1389 3.82478C7.1389 3.80036 7.1191 3.78056 7.09468 3.78056ZM6.38379 3.82478C6.38379 3.43217 6.70206 3.11389 7.09468 3.11389C7.48729 3.11389 7.80556 3.43217 7.80556 3.82478C7.80556 4.21739 7.48729 4.53567 7.09468 4.53567C6.70206 4.53567 6.38379 4.21739 6.38379 3.82478Z" />
	<path fill-rule="evenodd" clip-rule="evenodd" d="M12.3803 5.29081C12.3559 5.29081 12.3361 5.31061 12.3361 5.33503C12.3361 5.35946 12.3559 5.37925 12.3803 5.37925C12.4047 5.37925 12.4245 5.35946 12.4245 5.33503C12.4245 5.31061 12.4047 5.29081 12.3803 5.29081ZM11.6694 5.33503C11.6694 4.94242 11.9877 4.62415 12.3803 4.62415C12.7729 4.62415 13.0912 4.94242 13.0912 5.33503C13.0912 5.72765 12.7729 6.04592 12.3803 6.04592C11.9877 6.04592 11.6694 5.72765 11.6694 5.33503Z" />
	<path fill-rule="evenodd" clip-rule="evenodd" d="M10.1149 3.02543C10.0905 3.02543 10.0707 3.04523 10.0707 3.06965C10.0707 3.09407 10.0905 3.11387 10.1149 3.11387C10.1394 3.11387 10.1592 3.09407 10.1592 3.06965C10.1592 3.04523 10.1394 3.02543 10.1149 3.02543ZM9.40405 3.06965C9.40405 2.67704 9.72233 2.35876 10.1149 2.35876C10.5076 2.35876 10.8258 2.67704 10.8258 3.06965C10.8258 3.46226 10.5076 3.78054 10.1149 3.78054C9.72233 3.78054 9.40405 3.46226 9.40405 3.06965Z" />
</svg>
