<svg 
 viewBox="0 0 17 16"  xmlns="http://www.w3.org/2000/svg">
<path fill-rule="evenodd" clip-rule="evenodd" d="M5.06997 10.7042C5.02598 11.1638 5.01751 11.6331 5.04727 12.1094L5.1891 14.3787C5.20059 14.5625 5.06095 14.7207 4.87721 14.7322C4.69348 14.7437 4.53522 14.604 4.52374 14.4203L4.3819 12.151C4.04029 6.68522 8.38116 2.06458 13.8576 2.06458H14.8079L12.9722 3.53312C11.372 4.81329 10.4405 6.75146 10.4405 8.80074C10.4405 10.6631 8.59546 11.9633 6.84162 11.3369L5.06997 10.7042ZM5.16116 10.0288L7.06584 10.7091C8.38552 11.1804 9.77379 10.2021 9.77379 8.80074C9.77379 6.54894 10.7974 4.41923 12.5557 3.01254L12.8342 2.78978C8.92805 3.23974 5.8246 6.23371 5.16116 10.0288Z" />
</svg>
