<svg  viewBox="0 0 17 16"  xmlns="http://www.w3.org/2000/svg">
<g clip-path="url(#clip0_201_8207)">
<path fill-rule="evenodd" clip-rule="evenodd" d="M8.98185 12.5436C12.0108 12.5436 14.4662 10.0882 14.4662 7.05925C14.4662 4.03031 12.0108 1.57487 8.98185 1.57487C5.95292 1.57487 3.49748 4.03031 3.49748 7.05925C3.49748 10.0882 5.95292 12.5436 8.98185 12.5436ZM8.98185 13.2103C12.379 13.2103 15.1329 10.4564 15.1329 7.05925C15.1329 3.66212 12.379 0.908203 8.98185 0.908203C5.58473 0.908203 2.83081 3.66212 2.83081 7.05925C2.83081 10.4564 5.58473 13.2103 8.98185 13.2103Z" />
<path fill-rule="evenodd" clip-rule="evenodd" d="M6.35815 12.3436H7.02482V15.0203L8.98721 14.1542L10.9391 15.0194V12.3436H11.6057V16.0441L8.98662 14.8832L6.35815 16.0432V12.3436Z" />
</g>
<defs>
<clipPath id="clip0_201_8207">
<rect  transform="translate(0.981934)"/>
</clipPath>
</defs>
</svg>
