<svg  viewBox="0 0 17 16"  xmlns="http://www.w3.org/2000/svg">
<path fill-rule="evenodd" clip-rule="evenodd" d="M11.5474 9.35539C11.5474 8.35105 12.3615 7.53687 13.3659 7.53687C14.3702 7.53687 15.1844 8.35105 15.1844 9.35539V11.5832C15.1844 12.5875 14.3702 13.4017 13.3659 13.4017C12.3615 13.4017 11.5474 12.5875 11.5474 11.5832V9.35539ZM13.3659 8.20353C12.7297 8.20353 12.214 8.71924 12.214 9.35539V11.5832C12.214 12.2193 12.7297 12.735 13.3659 12.735C14.002 12.735 14.5178 12.2193 14.5178 11.5832V9.35539C14.5178 8.71924 14.002 8.20353 13.3659 8.20353Z" />
<path fill-rule="evenodd" clip-rule="evenodd" d="M2.63623 9.35539C2.63623 8.35105 3.45041 7.53687 4.45476 7.53687C5.4591 7.53687 6.27329 8.35105 6.27329 9.35539V11.5832C6.27329 12.5875 5.4591 13.4017 4.45476 13.4017C3.45041 13.4017 2.63623 12.5875 2.63623 11.5832V9.35539ZM4.45476 8.20353C3.8186 8.20353 3.3029 8.71924 3.3029 9.35539V11.5832C3.3029 12.2193 3.8186 12.735 4.45476 12.735C5.09091 12.735 5.60662 12.2193 5.60662 11.5832V9.35539C5.60662 8.71924 5.09091 8.20353 4.45476 8.20353Z" />
<path fill-rule="evenodd" clip-rule="evenodd" d="M2.96956 8.27954C3.15366 8.27954 3.3029 8.42878 3.3029 8.61287V10.8407C3.3029 11.0248 3.15366 11.174 2.96956 11.174C2.78547 11.174 2.63623 11.0248 2.63623 10.8407V8.61287C2.63623 8.42878 2.78547 8.27954 2.96956 8.27954Z" />
<path fill-rule="evenodd" clip-rule="evenodd" d="M14.8507 8.27954C15.0348 8.27954 15.184 8.42878 15.184 8.61287V10.8407C15.184 11.0248 15.0348 11.174 14.8507 11.174C14.6666 11.174 14.5173 11.0248 14.5173 10.8407V8.61287C14.5173 8.42878 14.6666 8.27954 14.8507 8.27954Z" />
<path fill-rule="evenodd" clip-rule="evenodd" d="M14.8511 8.94617C15.0352 8.94617 15.1845 8.79693 15.1845 8.61283C15.1845 6.76373 14.5319 4.9836 13.3602 3.66552C12.1875 2.34616 10.5879 1.59613 8.91034 1.59613C7.23283 1.59613 5.63321 2.34616 4.46044 3.66552C3.28881 4.9836 2.63623 6.76373 2.63623 8.61283C2.63623 8.79693 2.78547 8.94617 2.96956 8.94617C3.15366 8.94617 3.3029 8.79693 3.3029 8.61283C3.3029 6.91685 3.90212 5.2971 4.95871 4.10843C6.01417 2.92104 7.43667 2.26279 8.91034 2.26279C10.384 2.26279 11.8065 2.92104 12.862 4.10843C13.9186 5.2971 14.5178 6.91685 14.5178 8.61283C14.5178 8.79693 14.667 8.94617 14.8511 8.94617Z" />
</svg>
