<svg  viewBox="0 0 17 16"  xmlns="http://www.w3.org/2000/svg">
<path fill-rule="evenodd" clip-rule="evenodd" d="M8.036 1.32009C7.808 1.20112 7.53449 1.15017 7.27895 1.17905C7.01422 1.20898 6.80316 1.36698 6.63243 1.56338C6.46152 1.75996 6.30117 2.02895 6.1399 2.35252C5.81893 2.99652 5.45465 3.94027 4.98132 5.16654L4.97359 5.18657C4.60147 6.15063 4.27299 7.07772 4.03707 7.88217C3.80375 8.67776 3.65159 9.38361 3.65159 9.89247C3.65159 12.7922 6.00227 15.1428 8.90197 15.1428C11.8017 15.1428 14.1523 12.7922 14.1523 9.89247C14.1523 9.41767 14.0201 8.77335 13.8146 8.04781C13.607 7.31454 13.3163 6.47042 12.9824 5.58489C12.7823 5.05435 12.2858 4.85228 11.848 4.93865C11.4124 5.0246 11.0272 5.39685 11.0272 5.95891C11.0272 6.58949 10.516 7.10069 9.88538 7.10069C9.25479 7.10069 8.7436 6.58949 8.7436 5.95891V5.9377C8.7436 4.59968 8.7436 3.57079 8.67611 2.84301C8.64222 2.47747 8.58959 2.16475 8.50126 1.91723C8.41326 1.67061 8.27366 1.4441 8.036 1.32009ZM7.35384 1.8415C7.47735 1.82754 7.61738 1.85362 7.72759 1.91113C7.75417 1.925 7.81274 1.97138 7.87337 2.14128C7.93368 2.31028 7.98013 2.5577 8.0123 2.90456C8.07657 3.59772 8.07693 4.59557 8.07693 5.95891C8.07693 6.95768 8.8866 7.76735 9.88538 7.76735C10.8842 7.76735 11.6938 6.95768 11.6938 5.95891C11.6938 5.74256 11.8263 5.62245 11.977 5.59271C12.1255 5.56341 12.284 5.62234 12.3586 5.82013C12.689 6.6964 12.9726 7.52121 13.1732 8.22944C13.3759 8.94541 13.4857 9.51517 13.4857 9.89247C13.4857 12.424 11.4335 14.4762 8.90197 14.4762C6.37046 14.4762 4.31826 12.424 4.31826 9.89247C4.31826 9.48586 4.44551 8.85843 4.67679 8.06978C4.90548 7.28999 5.22681 6.38188 5.59553 5.42664C6.07811 4.17642 6.43137 3.26226 6.73657 2.6499C6.88926 2.34353 7.0199 2.13379 7.13555 2.00077C7.25136 1.86755 7.32241 1.84505 7.35384 1.8415Z" />
<path fill-rule="evenodd" clip-rule="evenodd" d="M9.38905 11.0347C9.13934 10.7225 8.66459 10.7225 8.41488 11.0347C7.73622 11.883 7.56615 13.0307 7.96962 14.0394L8.22805 14.6855L7.60906 14.9331L7.35063 14.287C6.85799 13.0554 7.06566 11.654 7.8943 10.6182C8.4109 9.97248 9.39303 9.97248 9.90963 10.6182C10.7383 11.654 10.9459 13.0554 10.4533 14.287L10.1949 14.9331L9.57588 14.6855L9.83431 14.0394C10.2378 13.0307 10.0677 11.883 9.38905 11.0347Z" />
</svg>
