<svg  viewBox="0 0 17 16" xmlns="http://www.w3.org/2000/svg">
<path fill-rule="evenodd" clip-rule="evenodd" d="M4.01753 3.50684C4.02482 3.50684 4.03213 3.50684 4.03947 3.50684L11.797 3.50684C11.9627 3.50683 12.1093 3.50682 12.2325 3.51845C12.3661 3.53107 12.4963 3.55896 12.6241 3.62852C12.7519 3.69807 12.846 3.79224 12.9291 3.8976C13.0057 3.99475 13.0853 4.1179 13.1753 4.25701L15.1303 7.28122C15.2365 7.44543 15.3299 7.58998 15.3948 7.71843C15.4651 7.85749 15.5158 8.00352 15.5158 8.17263C15.5158 8.34174 15.4651 8.48777 15.3948 8.62683C15.3299 8.75527 15.2365 8.8998 15.1304 9.06397L13.1753 12.0882C13.0853 12.2274 13.0057 12.3505 12.9291 12.4477C12.846 12.553 12.7519 12.6472 12.6241 12.7167C12.4963 12.7863 12.3661 12.8142 12.2325 12.8268C12.1093 12.8384 11.9627 12.8384 11.797 12.8384L4.01754 12.8384C3.72204 12.8384 3.46743 12.8385 3.26354 12.811C3.04504 12.7817 2.83558 12.7154 2.6657 12.5455C2.49581 12.3756 2.42956 12.1662 2.40018 11.9477C2.37277 11.7438 2.37279 11.4892 2.3728 11.1937L2.3728 5.1735C2.3728 5.16616 2.3728 5.15885 2.3728 5.15156C2.37279 4.85606 2.37277 4.60146 2.40018 4.39757C2.42956 4.17907 2.49581 3.96962 2.6657 3.79973C2.83558 3.62984 3.04504 3.5636 3.26354 3.53422C3.46743 3.50681 3.72203 3.50682 4.01753 3.50684ZM3.35237 4.19494C3.20779 4.21438 3.16248 4.24576 3.1371 4.27114C3.11173 4.29651 3.08034 4.34183 3.06091 4.48641C3.04018 4.64057 3.03947 4.84981 3.03947 5.1735V11.1718C3.03947 11.4954 3.04018 11.7047 3.06091 11.8589C3.08034 12.0034 3.11173 12.0487 3.1371 12.0741C3.16248 12.0995 3.20779 12.1309 3.35237 12.1503C3.50654 12.171 3.71578 12.1718 4.03947 12.1718H11.7831C11.9668 12.1718 12.0817 12.1714 12.1698 12.1631C12.251 12.1554 12.2841 12.1428 12.3054 12.1312C12.3266 12.1196 12.3552 12.0987 12.4057 12.0347C12.4606 11.9652 12.5232 11.8689 12.6229 11.7147L14.5618 8.71553C14.6792 8.53387 14.7528 8.41922 14.7997 8.32627C14.8431 8.24043 14.8491 8.20025 14.8491 8.17263C14.8491 8.14501 14.8431 8.10482 14.7997 8.01899C14.7528 7.92604 14.6792 7.81139 14.5618 7.62973L12.6229 4.6306C12.5232 4.47634 12.4606 4.38005 12.4057 4.31056C12.3552 4.24655 12.3266 4.22563 12.3054 4.21406C12.2841 4.2025 12.251 4.18983 12.1698 4.18217C12.0817 4.17385 11.9668 4.1735 11.7831 4.1735H4.03947C3.71578 4.1735 3.50654 4.17421 3.35237 4.19494Z" />
<path d="M12.2229 8.1726C12.2229 8.5769 11.8951 8.90465 11.4908 8.90465C11.0865 8.90465 10.7588 8.5769 10.7588 8.1726C10.7588 7.7683 11.0865 7.44055 11.4908 7.44055C11.8951 7.44055 12.2229 7.7683 12.2229 8.1726Z" />
<path fill-rule="evenodd" clip-rule="evenodd" d="M11.4909 7.77397C11.2707 7.77397 11.0922 7.95248 11.0922 8.17268C11.0922 8.39289 11.2707 8.5714 11.4909 8.5714C11.7111 8.5714 11.8896 8.39289 11.8896 8.17268C11.8896 7.95248 11.7111 7.77397 11.4909 7.77397ZM10.4255 8.17268C10.4255 7.58429 10.9025 7.1073 11.4909 7.1073C12.0793 7.1073 12.5563 7.58429 12.5563 8.17268C12.5563 8.76108 12.0793 9.23806 11.4909 9.23806C10.9025 9.23806 10.4255 8.76108 10.4255 8.17268Z" />
</svg>
