<svg viewBox="0 0 19 14" xmlns="http://www.w3.org/2000/svg">
	<path d="M17.4028 5.5L17.7564 5.85355L18.1099 5.5L17.7564 5.14645L17.4028 5.5ZM0.902832 13.5C0.902832 13.7761 1.12669 14 1.40283 14C1.67897 14 1.90283 13.7761 1.90283 13.5L0.902832 13.5ZM12.7564 10.8536L17.7564 5.85355L17.0493 5.14645L12.0493 10.1464L12.7564 10.8536ZM17.7564 5.14645L12.7564 0.146446L12.0493 0.853553L17.0493 5.85355L17.7564 5.14645ZM17.4028 5L7.40283 5L7.40283 6L17.4028 6L17.4028 5ZM0.902832 11.5L0.902832 13.5L1.90283 13.5L1.90283 11.5L0.902832 11.5ZM7.40283 5C3.81298 5 0.902833 7.91015 0.902832 11.5L1.90283 11.5C1.90283 8.46243 4.36527 6 7.40283 6L7.40283 5Z" />
</svg>
