<svg width="23" height="24" viewBox="0 0 23 24" fill="none" xmlns="http://www.w3.org/2000/svg">
<path fill-rule="evenodd" clip-rule="evenodd" d="M2.63867 6C2.63867 5.72386 2.86253 5.5 3.13867 5.5H21.1387C21.4148 5.5 21.6387 5.72386 21.6387 6C21.6387 6.27614 21.4148 6.5 21.1387 6.5H3.13867C2.86253 6.5 2.63867 6.27614 2.63867 6ZM8.65164 12C8.65164 11.7239 8.87549 11.5 9.15164 11.5H21.1387C21.4148 11.5 21.6387 11.7239 21.6387 12C21.6387 12.2761 21.4148 12.5 21.1387 12.5H9.15164C8.87549 12.5 8.65164 12.2761 8.65164 12ZM2.63867 18C2.63867 17.7239 2.86253 17.5 3.13867 17.5H21.1387C21.4148 17.5 21.6387 17.7239 21.6387 18C21.6387 18.2761 21.4148 18.5 21.1387 18.5H3.13867C2.86253 18.5 2.63867 18.2761 2.63867 18Z" fill="#636870"/>
<path d="M6.34224 14.15C6.53166 14.35 6.53166 14.65 6.34224 14.85C6.24753 14.95 6.15282 15 6.01075 15C5.86868 15 5.77397 14.95 5.67926 14.85L2.97998 12L5.67926 9.15C5.86868 8.95 6.15282 8.95 6.34224 9.15C6.53166 9.35 6.53166 9.65 6.34224 9.85L4.30594 12L6.34224 14.15Z" fill="#636870"/>
</svg>
