<svg width="24" height="24" viewBox="0 0 24 24" fill="none" xmlns="http://www.w3.org/2000/svg">
<circle cx="12" cy="8" r="4" stroke="#AEB0B4" stroke-linecap="round"/>
<path d="M20.8281 15.1714L15.1713 20.8282" stroke="#AEB0B4" stroke-linecap="round"/>
<path d="M20.8281 20.8286L15.1713 15.1718" stroke="#AEB0B4" stroke-linecap="round"/>
<path d="M12.6602 15.5196C12.0781 15.485 11.4905 15.4961 10.9067 15.5538C9.26616 15.7157 7.71472 16.2397 6.45048 17.0712C5.18613 17.9028 4.25374 19.0137 3.80174 20.2789C3.70884 20.5389 3.84433 20.825 4.10438 20.9179C4.36442 21.0108 4.65054 20.8754 4.74345 20.6153C5.11048 19.588 5.88515 18.64 7 17.9067C8.11495 17.1734 9.508 16.6967 11.0049 16.5489C11.4892 16.5011 11.9758 16.4886 12.4581 16.5103C12.4918 16.1686 12.5604 15.8372 12.6602 15.5196Z" fill="#AEB0B4"/>
</svg>
