<svg width="16" height="17" viewBox="0 0 16 17" fill="none" xmlns="http://www.w3.org/2000/svg">
<path d="M10.5 8.35864H0.5C0.2 8.35864 0 8.55864 0 8.85864C0 9.15864 0.2 9.35864 0.5 9.35864H10.5C10.8 9.35864 11 9.15864 11 8.85864C11 8.55864 10.8 8.35864 10.5 8.35864ZM15.5 2.35864H0.5C0.2 2.35864 0 2.55864 0 2.85864C0 3.15864 0.2 3.35864 0.5 3.35864H15.5C15.8 3.35864 16 3.15864 16 2.85864C16 2.55864 15.8 2.35864 15.5 2.35864ZM15.5 14.3586H0.5C0.2 14.3586 0 14.5586 0 14.8586C0 15.1586 0.2 15.3586 0.5 15.3586H15.5C15.8 15.3586 16 15.1586 16 14.8586C16 14.5586 15.8 14.3586 15.5 14.3586ZM12.15 11.7086C11.95 11.5086 11.95 11.2086 12.15 11.0086L14.3 8.85864L12.15 6.70864C11.95 6.50864 11.95 6.20864 12.15 6.00864C12.35 5.80864 12.65 5.80864 12.85 6.00864L15.7 8.85864L12.85 11.7086C12.75 11.8086 12.65 11.8586 12.5 11.8586C12.35 11.8586 12.25 11.8086 12.15 11.7086Z" fill="white"/>
</svg>
