<svg width="20" height="14" viewBox="0 0 20 14" fill="none" xmlns="http://www.w3.org/2000/svg">
<path fill-rule="evenodd" clip-rule="evenodd" d="M0.5 1.44043C0.5 1.16429 0.723858 0.94043 1 0.94043H19C19.2761 0.94043 19.5 1.16429 19.5 1.44043C19.5 1.71657 19.2761 1.94043 19 1.94043H1C0.723858 1.94043 0.5 1.71657 0.5 1.44043ZM0.5 7.44043C0.5 7.16429 0.723858 6.94043 1 6.94043H19C19.2761 6.94043 19.5 7.16429 19.5 7.44043C19.5 7.71657 19.2761 7.94043 19 7.94043H1C0.723858 7.94043 0.5 7.71657 0.5 7.44043ZM0.5 13.4404C0.5 13.1643 0.723858 12.9404 1 12.9404H19C19.2761 12.9404 19.5 13.1643 19.5 13.4404C19.5 13.7166 19.2761 13.9404 19 13.9404H1C0.723858 13.9404 0.5 13.7166 0.5 13.4404Z" fill="white"/>
</svg>
