<svg width="0" height="0" position="absolute"><symbol id="home-1" viewBox="0 0 17 16" xmlns="http://www.w3.org/2000/svg"><path fill-rule="evenodd" clip-rule="evenodd" d="M8.77737 1.07022C8.89774 0.976595 9.06629 0.976595 9.18666 1.07022L15.1867 5.73688C15.2679 5.80003 15.3153 5.89714 15.3153 6V13.3333C15.3153 13.7754 15.1398 14.1993 14.8272 14.5118C14.5146 14.8244 14.0907 15 13.6487 15H4.31535C3.87332 15 3.4494 14.8244 3.13684 14.5118C2.82428 14.1993 2.64868 13.7754 2.64868 13.3333V6C2.64868 5.89714 2.69617 5.80003 2.77737 5.73688L8.77737 1.07022ZM3.31535 6.16303V13.3333C3.31535 13.5986 3.42071 13.8529 3.60824 14.0404C3.79578 14.228 4.05013 14.3333 4.31535 14.3333H13.6487C13.9139 14.3333 14.1683 14.228 14.3558 14.0404C14.5433 13.8529 14.6487 13.5986 14.6487 13.3333V6.16303L8.98201 1.75562L3.31535 6.16303Z"></path><path fill-rule="evenodd" clip-rule="evenodd" d="M6.64868 7.99996C6.64868 7.81586 6.79792 7.66663 6.98201 7.66663H10.982C11.1661 7.66663 11.3153 7.81586 11.3153 7.99996V14.6666C11.3153 14.8507 11.1661 15 10.982 15C10.7979 15 10.6487 14.8507 10.6487 14.6666V8.33329H7.31535V14.6666C7.31535 14.8507 7.16611 15 6.98201 15C6.79792 15 6.64868 14.8507 6.64868 14.6666V7.99996Z"></path></symbol><symbol id="home-3" viewBox="0 0 17 16" xmlns="http://www.w3.org/2000/svg"><path fill-rule="evenodd" clip-rule="evenodd" d="M15.69 7.97792C15.69 11.6824 12.6869 14.6855 8.98244 14.6855C5.27797 14.6855 2.2749 11.6824 2.2749 7.97792C2.2749 4.27345 5.27797 1.27039 8.98244 1.27039C12.6869 1.27039 15.69 4.27345 15.69 7.97792ZM8.98244 14.0188C12.3187 14.0188 15.0233 11.3142 15.0233 7.97792C15.0233 4.64164 12.3187 1.93705 8.98244 1.93705C5.64616 1.93705 2.94157 4.64164 2.94157 7.97792C2.94157 11.3142 5.64616 14.0188 8.98244 14.0188Z"></path><path fill-rule="evenodd" clip-rule="evenodd" d="M8.98245 6.04594C7.91544 6.04594 7.05046 6.91092 7.05046 7.97793C7.05046 9.04494 7.91544 9.90992 8.98245 9.90992C10.0495 9.90992 10.9144 9.04494 10.9144 7.97793C10.9144 6.91092 10.0495 6.04594 8.98245 6.04594ZM6.38379 7.97793C6.38379 6.54273 7.54725 5.37927 8.98245 5.37927C10.4176 5.37927 11.5811 6.54273 11.5811 7.97793C11.5811 9.41313 10.4176 10.5766 8.98245 10.5766C7.54725 10.5766 6.38379 9.41313 6.38379 7.97793Z"></path><path fill-rule="evenodd" clip-rule="evenodd" d="M13.1794 7.9639C13.2398 7.35914 12.4842 7.0378 12.0905 7.50088L11.5016 8.19375L10.9937 7.76198L11.5826 7.06912C12.3997 6.10785 13.9683 6.7749 13.8427 8.03024C13.776 8.69756 14.6692 8.98059 14.999 8.39661L15.0571 8.29374L15.6376 8.62154L15.5795 8.72441C14.895 9.93662 13.0408 9.34911 13.1794 7.9639Z"></path><path fill-rule="evenodd" clip-rule="evenodd" d="M4.73884 8.70292C4.91224 9.53524 6.10709 9.51688 6.25484 8.67963L6.38889 7.92002L7.04541 8.03588L6.91136 8.79548C6.63602 10.3558 4.40933 10.39 4.08619 8.83888L3.92519 8.06613C3.8208 7.56503 3.13332 7.49625 2.93172 7.96674L2.31894 7.70417C2.77732 6.6344 4.34048 6.79078 4.57785 7.93016L4.73884 8.70292Z"></path><path fill-rule="evenodd" clip-rule="evenodd" d="M7.09468 3.78056C7.07025 3.78056 7.05046 3.80036 7.05046 3.82478C7.05046 3.8492 7.07025 3.869 7.09468 3.869C7.1191 3.869 7.1389 3.8492 7.1389 3.82478C7.1389 3.80036 7.1191 3.78056 7.09468 3.78056ZM6.38379 3.82478C6.38379 3.43217 6.70206 3.11389 7.09468 3.11389C7.48729 3.11389 7.80556 3.43217 7.80556 3.82478C7.80556 4.21739 7.48729 4.53567 7.09468 4.53567C6.70206 4.53567 6.38379 4.21739 6.38379 3.82478Z"></path><path fill-rule="evenodd" clip-rule="evenodd" d="M12.3803 5.29081C12.3559 5.29081 12.3361 5.31061 12.3361 5.33503C12.3361 5.35946 12.3559 5.37925 12.3803 5.37925C12.4047 5.37925 12.4245 5.35946 12.4245 5.33503C12.4245 5.31061 12.4047 5.29081 12.3803 5.29081ZM11.6694 5.33503C11.6694 4.94242 11.9877 4.62415 12.3803 4.62415C12.7729 4.62415 13.0912 4.94242 13.0912 5.33503C13.0912 5.72765 12.7729 6.04592 12.3803 6.04592C11.9877 6.04592 11.6694 5.72765 11.6694 5.33503Z"></path><path fill-rule="evenodd" clip-rule="evenodd" d="M10.1149 3.02543C10.0905 3.02543 10.0707 3.04523 10.0707 3.06965C10.0707 3.09407 10.0905 3.11387 10.1149 3.11387C10.1394 3.11387 10.1592 3.09407 10.1592 3.06965C10.1592 3.04523 10.1394 3.02543 10.1149 3.02543ZM9.40405 3.06965C9.40405 2.67704 9.72233 2.35876 10.1149 2.35876C10.5076 2.35876 10.8258 2.67704 10.8258 3.06965C10.8258 3.46226 10.5076 3.78054 10.1149 3.78054C9.72233 3.78054 9.40405 3.46226 9.40405 3.06965Z"></path></symbol><symbol id="dots" viewBox="0 0 16 18" xmlns="http://www.w3.org/2000/svg"><path d="M9.98902 0.304504C11.2599 0.304494 12.2647 0.304487 13.0507 0.410154C13.8588 0.5188 14.51 0.747331 15.0231 1.26048C15.5363 1.77363 15.7648 2.42484 15.8734 3.23293C15.9791 4.01888 15.9791 5.02366 15.9791 6.29457V12.6675C15.9791 13.8655 15.9791 14.8218 15.8766 15.5233C15.7736 16.2278 15.5431 16.8556 14.9198 17.1585C14.2965 17.4615 13.6605 17.2549 13.0429 16.9006C12.428 16.5478 11.676 15.957 10.734 15.2168L10.734 15.2168L10.0766 14.7003C9.52046 14.2633 9.1377 13.9636 8.81632 13.7681C8.50648 13.5796 8.30171 13.5189 8.10869 13.5189C7.91566 13.5189 7.7109 13.5796 7.40105 13.7681C7.07968 13.9636 6.69692 14.2633 6.1408 14.7003L5.48341 15.2168L5.48339 15.2168C4.54137 15.957 3.7894 16.5478 3.17451 16.9006C2.55689 17.2549 1.92084 17.4615 1.29756 17.1585C0.674288 16.8556 0.443739 16.2278 0.340769 15.5233C0.238253 14.8218 0.238266 13.8655 0.238281 12.6675V12.6675V6.29459V6.29457C0.238272 5.02366 0.238264 4.01888 0.343932 3.23293C0.452577 2.42484 0.681108 1.77363 1.19426 1.26048C1.70741 0.747331 2.35862 0.5188 3.16671 0.410154C3.95266 0.304487 4.95744 0.304494 6.22835 0.304504H6.22836H9.98901H9.98902Z"></path></symbol><symbol id="home-2" viewBox="0 0 17 16" xmlns="http://www.w3.org/2000/svg"><path fill-rule="evenodd" clip-rule="evenodd" d="M8.036 1.32009C7.808 1.20112 7.53449 1.15017 7.27895 1.17905C7.01422 1.20898 6.80316 1.36698 6.63243 1.56338C6.46152 1.75996 6.30117 2.02895 6.1399 2.35252C5.81893 2.99652 5.45465 3.94027 4.98132 5.16654L4.97359 5.18657C4.60147 6.15063 4.27299 7.07772 4.03707 7.88217C3.80375 8.67776 3.65159 9.38361 3.65159 9.89247C3.65159 12.7922 6.00227 15.1428 8.90197 15.1428C11.8017 15.1428 14.1523 12.7922 14.1523 9.89247C14.1523 9.41767 14.0201 8.77335 13.8146 8.04781C13.607 7.31454 13.3163 6.47042 12.9824 5.58489C12.7823 5.05435 12.2858 4.85228 11.848 4.93865C11.4124 5.0246 11.0272 5.39685 11.0272 5.95891C11.0272 6.58949 10.516 7.10069 9.88538 7.10069C9.25479 7.10069 8.7436 6.58949 8.7436 5.95891V5.9377C8.7436 4.59968 8.7436 3.57079 8.67611 2.84301C8.64222 2.47747 8.58959 2.16475 8.50126 1.91723C8.41326 1.67061 8.27366 1.4441 8.036 1.32009ZM7.35384 1.8415C7.47735 1.82754 7.61738 1.85362 7.72759 1.91113C7.75417 1.925 7.81274 1.97138 7.87337 2.14128C7.93368 2.31028 7.98013 2.5577 8.0123 2.90456C8.07657 3.59772 8.07693 4.59557 8.07693 5.95891C8.07693 6.95768 8.8866 7.76735 9.88538 7.76735C10.8842 7.76735 11.6938 6.95768 11.6938 5.95891C11.6938 5.74256 11.8263 5.62245 11.977 5.59271C12.1255 5.56341 12.284 5.62234 12.3586 5.82013C12.689 6.6964 12.9726 7.52121 13.1732 8.22944C13.3759 8.94541 13.4857 9.51517 13.4857 9.89247C13.4857 12.424 11.4335 14.4762 8.90197 14.4762C6.37046 14.4762 4.31826 12.424 4.31826 9.89247C4.31826 9.48586 4.44551 8.85843 4.67679 8.06978C4.90548 7.28999 5.22681 6.38188 5.59553 5.42664C6.07811 4.17642 6.43137 3.26226 6.73657 2.6499C6.88926 2.34353 7.0199 2.13379 7.13555 2.00077C7.25136 1.86755 7.32241 1.84505 7.35384 1.8415Z"></path><path fill-rule="evenodd" clip-rule="evenodd" d="M9.38905 11.0347C9.13934 10.7225 8.66459 10.7225 8.41488 11.0347C7.73622 11.883 7.56615 13.0307 7.96962 14.0394L8.22805 14.6855L7.60906 14.9331L7.35063 14.287C6.85799 13.0554 7.06566 11.654 7.8943 10.6182C8.4109 9.97248 9.39303 9.97248 9.90963 10.6182C10.7383 11.654 10.9459 13.0554 10.4533 14.287L10.1949 14.9331L9.57588 14.6855L9.83431 14.0394C10.2378 13.0307 10.0677 11.883 9.38905 11.0347Z"></path></symbol><symbol id="home-4" viewBox="0 0 17 16" xmlns="http://www.w3.org/2000/svg"><g clip-path="url(#clip0_201_8207)"><path fill-rule="evenodd" clip-rule="evenodd" d="M8.98185 12.5436C12.0108 12.5436 14.4662 10.0882 14.4662 7.05925C14.4662 4.03031 12.0108 1.57487 8.98185 1.57487C5.95292 1.57487 3.49748 4.03031 3.49748 7.05925C3.49748 10.0882 5.95292 12.5436 8.98185 12.5436ZM8.98185 13.2103C12.379 13.2103 15.1329 10.4564 15.1329 7.05925C15.1329 3.66212 12.379 0.908203 8.98185 0.908203C5.58473 0.908203 2.83081 3.66212 2.83081 7.05925C2.83081 10.4564 5.58473 13.2103 8.98185 13.2103Z"></path><path fill-rule="evenodd" clip-rule="evenodd" d="M6.35815 12.3436H7.02482V15.0203L8.98721 14.1542L10.9391 15.0194V12.3436H11.6057V16.0441L8.98662 14.8832L6.35815 16.0432V12.3436Z"></path></g><defs><clipPath><rect transform="translate(0.981934)"></rect></clipPath></defs></symbol><symbol id="home-5" viewBox="0 0 17 16" xmlns="http://www.w3.org/2000/svg"><path fill-rule="evenodd" clip-rule="evenodd" d="M11.5474 9.35539C11.5474 8.35105 12.3615 7.53687 13.3659 7.53687C14.3702 7.53687 15.1844 8.35105 15.1844 9.35539V11.5832C15.1844 12.5875 14.3702 13.4017 13.3659 13.4017C12.3615 13.4017 11.5474 12.5875 11.5474 11.5832V9.35539ZM13.3659 8.20353C12.7297 8.20353 12.214 8.71924 12.214 9.35539V11.5832C12.214 12.2193 12.7297 12.735 13.3659 12.735C14.002 12.735 14.5178 12.2193 14.5178 11.5832V9.35539C14.5178 8.71924 14.002 8.20353 13.3659 8.20353Z"></path><path fill-rule="evenodd" clip-rule="evenodd" d="M2.63623 9.35539C2.63623 8.35105 3.45041 7.53687 4.45476 7.53687C5.4591 7.53687 6.27329 8.35105 6.27329 9.35539V11.5832C6.27329 12.5875 5.4591 13.4017 4.45476 13.4017C3.45041 13.4017 2.63623 12.5875 2.63623 11.5832V9.35539ZM4.45476 8.20353C3.8186 8.20353 3.3029 8.71924 3.3029 9.35539V11.5832C3.3029 12.2193 3.8186 12.735 4.45476 12.735C5.09091 12.735 5.60662 12.2193 5.60662 11.5832V9.35539C5.60662 8.71924 5.09091 8.20353 4.45476 8.20353Z"></path><path fill-rule="evenodd" clip-rule="evenodd" d="M2.96956 8.27954C3.15366 8.27954 3.3029 8.42878 3.3029 8.61287V10.8407C3.3029 11.0248 3.15366 11.174 2.96956 11.174C2.78547 11.174 2.63623 11.0248 2.63623 10.8407V8.61287C2.63623 8.42878 2.78547 8.27954 2.96956 8.27954Z"></path><path fill-rule="evenodd" clip-rule="evenodd" d="M14.8507 8.27954C15.0348 8.27954 15.184 8.42878 15.184 8.61287V10.8407C15.184 11.0248 15.0348 11.174 14.8507 11.174C14.6666 11.174 14.5173 11.0248 14.5173 10.8407V8.61287C14.5173 8.42878 14.6666 8.27954 14.8507 8.27954Z"></path><path fill-rule="evenodd" clip-rule="evenodd" d="M14.8511 8.94617C15.0352 8.94617 15.1845 8.79693 15.1845 8.61283C15.1845 6.76373 14.5319 4.9836 13.3602 3.66552C12.1875 2.34616 10.5879 1.59613 8.91034 1.59613C7.23283 1.59613 5.63321 2.34616 4.46044 3.66552C3.28881 4.9836 2.63623 6.76373 2.63623 8.61283C2.63623 8.79693 2.78547 8.94617 2.96956 8.94617C3.15366 8.94617 3.3029 8.79693 3.3029 8.61283C3.3029 6.91685 3.90212 5.2971 4.95871 4.10843C6.01417 2.92104 7.43667 2.26279 8.91034 2.26279C10.384 2.26279 11.8065 2.92104 12.862 4.10843C13.9186 5.2971 14.5178 6.91685 14.5178 8.61283C14.5178 8.79693 14.667 8.94617 14.8511 8.94617Z"></path></symbol><symbol id="home-6" viewBox="0 0 17 16" xmlns="http://www.w3.org/2000/svg"><path fill-rule="evenodd" clip-rule="evenodd" d="M5.06997 10.7042C5.02598 11.1638 5.01751 11.6331 5.04727 12.1094L5.1891 14.3787C5.20059 14.5625 5.06095 14.7207 4.87721 14.7322C4.69348 14.7437 4.53522 14.604 4.52374 14.4203L4.3819 12.151C4.04029 6.68522 8.38116 2.06458 13.8576 2.06458H14.8079L12.9722 3.53312C11.372 4.81329 10.4405 6.75146 10.4405 8.80074C10.4405 10.6631 8.59546 11.9633 6.84162 11.3369L5.06997 10.7042ZM5.16116 10.0288L7.06584 10.7091C8.38552 11.1804 9.77379 10.2021 9.77379 8.80074C9.77379 6.54894 10.7974 4.41923 12.5557 3.01254L12.8342 2.78978C8.92805 3.23974 5.8246 6.23371 5.16116 10.0288Z"></path></symbol><symbol id="home-8" viewBox="0 0 17 16" xmlns="http://www.w3.org/2000/svg"><path fill-rule="evenodd" clip-rule="evenodd" d="M9.4385 10.562L9.89209 11.0506L8.02184 12.7869L9.89209 14.5232L9.4385 15.0118L7.04199 12.7869L9.4385 10.562Z"></path><path fill-rule="evenodd" clip-rule="evenodd" d="M12.7707 4.98368C12.6113 5.07573 12.5567 5.27959 12.6487 5.43902C13.084 6.193 13.3002 7.05353 13.2729 7.92372C13.2457 8.79391 12.976 9.63921 12.4943 10.3644C12.0126 11.0897 11.3381 11.666 10.5466 12.0287C9.75505 12.3913 8.87802 12.5257 8.01424 12.4169C7.83158 12.3939 7.66486 12.5233 7.64184 12.7059C7.61883 12.8886 7.74824 13.0553 7.93089 13.0783C8.91782 13.2027 9.91987 13.049 10.8242 12.6347C11.7286 12.2204 12.4993 11.5619 13.0497 10.7333C13.6 9.90466 13.9081 8.93885 13.9393 7.94461C13.9704 6.95036 13.7234 5.96715 13.2261 5.10569C13.134 4.94626 12.9302 4.89163 12.7707 4.98368Z"></path><path fill-rule="evenodd" clip-rule="evenodd" d="M4.97342 11.1174C5.13285 11.0253 5.18747 10.8215 5.09543 10.6621C4.6538 9.89713 4.43783 9.02278 4.47252 8.14021C4.50721 7.25764 4.79114 6.40294 5.29144 5.67504C5.79174 4.94714 6.48796 4.37581 7.2995 4.02719C8.11104 3.67857 9.00472 3.56691 9.87709 3.70513C10.0589 3.73394 10.2297 3.6099 10.2585 3.42807C10.2873 3.24624 10.1633 3.07549 9.98142 3.04668C8.98469 2.88875 7.9636 3.01633 7.03637 3.41465C6.10913 3.81297 5.31366 4.46575 4.74204 5.29742C4.17041 6.12908 3.846 7.10564 3.80637 8.11403C3.76673 9.12242 4.01349 10.1214 4.51808 10.9954C4.61012 11.1548 4.81399 11.2094 4.97342 11.1174Z"></path><path fill-rule="evenodd" clip-rule="evenodd" d="M8.3054 1.08923L7.85181 1.57781L9.72206 3.31413L7.85181 5.05046L8.3054 5.53903L10.7019 3.31413L8.3054 1.08923Z"></path></symbol><symbol id="home-9" viewBox="0 0 17 16" xmlns="http://www.w3.org/2000/svg"><path fill-rule="evenodd" clip-rule="evenodd" d="M4.01753 3.50684C4.02482 3.50684 4.03213 3.50684 4.03947 3.50684L11.797 3.50684C11.9627 3.50683 12.1093 3.50682 12.2325 3.51845C12.3661 3.53107 12.4963 3.55896 12.6241 3.62852C12.7519 3.69807 12.846 3.79224 12.9291 3.8976C13.0057 3.99475 13.0853 4.1179 13.1753 4.25701L15.1303 7.28122C15.2365 7.44543 15.3299 7.58998 15.3948 7.71843C15.4651 7.85749 15.5158 8.00352 15.5158 8.17263C15.5158 8.34174 15.4651 8.48777 15.3948 8.62683C15.3299 8.75527 15.2365 8.8998 15.1304 9.06397L13.1753 12.0882C13.0853 12.2274 13.0057 12.3505 12.9291 12.4477C12.846 12.553 12.7519 12.6472 12.6241 12.7167C12.4963 12.7863 12.3661 12.8142 12.2325 12.8268C12.1093 12.8384 11.9627 12.8384 11.797 12.8384L4.01754 12.8384C3.72204 12.8384 3.46743 12.8385 3.26354 12.811C3.04504 12.7817 2.83558 12.7154 2.6657 12.5455C2.49581 12.3756 2.42956 12.1662 2.40018 11.9477C2.37277 11.7438 2.37279 11.4892 2.3728 11.1937L2.3728 5.1735C2.3728 5.16616 2.3728 5.15885 2.3728 5.15156C2.37279 4.85606 2.37277 4.60146 2.40018 4.39757C2.42956 4.17907 2.49581 3.96962 2.6657 3.79973C2.83558 3.62984 3.04504 3.5636 3.26354 3.53422C3.46743 3.50681 3.72203 3.50682 4.01753 3.50684ZM3.35237 4.19494C3.20779 4.21438 3.16248 4.24576 3.1371 4.27114C3.11173 4.29651 3.08034 4.34183 3.06091 4.48641C3.04018 4.64057 3.03947 4.84981 3.03947 5.1735V11.1718C3.03947 11.4954 3.04018 11.7047 3.06091 11.8589C3.08034 12.0034 3.11173 12.0487 3.1371 12.0741C3.16248 12.0995 3.20779 12.1309 3.35237 12.1503C3.50654 12.171 3.71578 12.1718 4.03947 12.1718H11.7831C11.9668 12.1718 12.0817 12.1714 12.1698 12.1631C12.251 12.1554 12.2841 12.1428 12.3054 12.1312C12.3266 12.1196 12.3552 12.0987 12.4057 12.0347C12.4606 11.9652 12.5232 11.8689 12.6229 11.7147L14.5618 8.71553C14.6792 8.53387 14.7528 8.41922 14.7997 8.32627C14.8431 8.24043 14.8491 8.20025 14.8491 8.17263C14.8491 8.14501 14.8431 8.10482 14.7997 8.01899C14.7528 7.92604 14.6792 7.81139 14.5618 7.62973L12.6229 4.6306C12.5232 4.47634 12.4606 4.38005 12.4057 4.31056C12.3552 4.24655 12.3266 4.22563 12.3054 4.21406C12.2841 4.2025 12.251 4.18983 12.1698 4.18217C12.0817 4.17385 11.9668 4.1735 11.7831 4.1735H4.03947C3.71578 4.1735 3.50654 4.17421 3.35237 4.19494Z"></path><path d="M12.2229 8.1726C12.2229 8.5769 11.8951 8.90465 11.4908 8.90465C11.0865 8.90465 10.7588 8.5769 10.7588 8.1726C10.7588 7.7683 11.0865 7.44055 11.4908 7.44055C11.8951 7.44055 12.2229 7.7683 12.2229 8.1726Z"></path><path fill-rule="evenodd" clip-rule="evenodd" d="M11.4909 7.77397C11.2707 7.77397 11.0922 7.95248 11.0922 8.17268C11.0922 8.39289 11.2707 8.5714 11.4909 8.5714C11.7111 8.5714 11.8896 8.39289 11.8896 8.17268C11.8896 7.95248 11.7111 7.77397 11.4909 7.77397ZM10.4255 8.17268C10.4255 7.58429 10.9025 7.1073 11.4909 7.1073C12.0793 7.1073 12.5563 7.58429 12.5563 8.17268C12.5563 8.76108 12.0793 9.23806 11.4909 9.23806C10.9025 9.23806 10.4255 8.76108 10.4255 8.17268Z"></path></symbol><symbol id="video-dots" viewBox="0 0 24 24" xmlns="http://www.w3.org/2000/svg"><rect x="12.0103" y="11.999" width="0.01" height="0.01" transform="rotate(90 12.0103 11.999)"></rect><rect x="19.0103" y="11.999" width="0.01" height="0.01" transform="rotate(90 19.0103 11.999)"></rect><rect x="5.01025" y="11.999" width="0.01" height="0.01" transform="rotate(90 5.01025 11.999)"></rect></symbol><symbol id="repost" viewBox="0 0 19 14" xmlns="http://www.w3.org/2000/svg"><path d="M17.4028 5.5L17.7564 5.85355L18.1099 5.5L17.7564 5.14645L17.4028 5.5ZM0.902832 13.5C0.902832 13.7761 1.12669 14 1.40283 14C1.67897 14 1.90283 13.7761 1.90283 13.5L0.902832 13.5ZM12.7564 10.8536L17.7564 5.85355L17.0493 5.14645L12.0493 10.1464L12.7564 10.8536ZM17.7564 5.14645L12.7564 0.146446L12.0493 0.853553L17.0493 5.85355L17.7564 5.14645ZM17.4028 5L7.40283 5L7.40283 6L17.4028 6L17.4028 5ZM0.902832 11.5L0.902832 13.5L1.90283 13.5L1.90283 11.5L0.902832 11.5ZM7.40283 5C3.81298 5 0.902833 7.91015 0.902832 11.5L1.90283 11.5C1.90283 8.46243 4.36527 6 7.40283 6L7.40283 5Z"></path></symbol><symbol id="like" viewBox="0 0 19 18" xmlns="http://www.w3.org/2000/svg"><path d="M14.3604 17H3C1.89543 17 1 16.1046 1 15V7H4.92963C5.59834 7 6.2228 6.6658 6.59373 6.1094L9.1094 2.3359C9.6658 1.5013 10.6025 1 11.6056 1H11.8195C12.4375 1 12.9075 1.55487 12.8059 2.1644L12 7H15.5604C16.8225 7 17.7691 8.15465 17.5216 9.39223L16.3216 15.3922C16.1346 16.3271 15.3138 17 14.3604 17Z"></path></symbol><symbol id="home-7" viewBox="0 0 17 16" xmlns="http://www.w3.org/2000/svg"><path fill-rule="evenodd" clip-rule="evenodd" d="M7.54759 2.203H10.0547C10.902 2.203 11.5718 2.20299 12.0958 2.27344C12.6345 2.34587 13.0687 2.49822 13.4108 2.84032C13.7529 3.18242 13.9052 3.61656 13.9776 4.15529C14.0481 4.67925 14.0481 5.3491 14.0481 6.19638V10.445C14.0481 11.2437 14.0481 11.8812 13.9798 12.3489C13.9111 12.8186 13.7574 13.2371 13.3419 13.439C12.9264 13.641 12.5023 13.5033 12.0906 13.2671C11.6807 13.0319 11.1793 12.638 10.5513 12.1445L10.1131 11.8002C9.74232 11.5089 9.48714 11.3091 9.27289 11.1787C9.06633 11.0531 8.92982 11.0126 8.80114 11.0126C8.67245 11.0126 8.53594 11.0531 8.32938 11.1787C8.11513 11.3091 7.85996 11.5089 7.48921 11.8002L7.05095 12.1445C6.42293 12.638 5.92161 13.0319 5.51168 13.2671C5.09994 13.5033 4.6759 13.641 4.26039 13.439C3.84487 13.2371 3.69117 12.8186 3.62252 12.3489C3.55418 11.8812 3.55419 11.2437 3.5542 10.445L3.5542 6.19639C3.55419 5.34911 3.55419 4.67926 3.62463 4.15529C3.69706 3.61656 3.84942 3.18242 4.19152 2.84032C4.53362 2.49822 4.96776 2.34587 5.50649 2.27344C6.03045 2.20299 6.70031 2.203 7.54759 2.203ZM5.59532 2.93416C5.13051 2.99665 4.86051 3.11414 4.66292 3.31172C4.46533 3.50931 4.34785 3.77932 4.28535 4.24412C4.22157 4.71851 4.22087 5.34351 4.22087 6.22154V10.4151C4.22087 11.2504 4.22174 11.8389 4.28218 12.2524C4.34318 12.6698 4.44876 12.7893 4.55181 12.8394C4.65486 12.8895 4.81409 12.8987 5.17994 12.6888C5.5425 12.4808 6.00572 12.1179 6.66259 11.6018L7.09358 11.2632C7.44409 10.9878 7.73048 10.7628 7.98289 10.6092C8.24688 10.4486 8.50496 10.3459 8.80114 10.3459C9.09731 10.3459 9.3554 10.4486 9.61939 10.6092C9.8718 10.7628 10.1582 10.9878 10.5087 11.2632L10.9397 11.6018C11.5966 12.1179 12.0598 12.4808 12.4223 12.6888C12.7882 12.8987 12.9474 12.8895 13.0505 12.8394C13.1535 12.7893 13.2591 12.6698 13.3201 12.2524C13.3805 11.8389 13.3814 11.2504 13.3814 10.4151V6.22154C13.3814 5.34351 13.3807 4.71851 13.3169 4.24412C13.2544 3.77932 13.1369 3.50931 12.9394 3.31172C12.7418 3.11414 12.4718 2.99665 12.007 2.93416C11.5326 2.87038 10.9076 2.86967 10.0295 2.86967H7.57274C6.6947 2.86967 6.06971 2.87038 5.59532 2.93416Z"></path></symbol></svg>