<svg width="24" height="23" viewBox="0 0 24 23" fill="none" xmlns="http://www.w3.org/2000/svg">
<path d="M11.9509 13.2777C15.2417 13.2777 17.9094 10.61 17.9094 7.31927C17.9094 4.02852 15.2417 1.36084 11.9509 1.36084C8.66019 1.36084 5.99251 4.02852 5.99251 7.31927C5.99251 10.61 8.66019 13.2777 11.9509 13.2777Z" stroke="#AEB0B4" stroke-linecap="round"/>
<path d="M19.4614 17.554C17.3068 16.2232 14.6668 15.5019 11.951 15.5019C9.23512 15.5019 6.59516 16.2232 4.44053 17.554C2.39537 18.8172 0.895973 20.5625 0.147765 22.5424C0.0887037 22.6987 0.206582 22.8624 0.373657 22.8624L11.9509 26.6741L23.8678 22.8624C23.1649 20.7508 21.616 18.8849 19.4614 17.554Z" stroke="#AEB0B4" stroke-linecap="round"/>
</svg>
