<svg width="14" height="20" viewBox="0 0 14 20" fill="none" xmlns="http://www.w3.org/2000/svg">
<path d="M0.899902 2.70025V5.24649C0.899902 6.2468 1.44552 7.06523 2.26396 7.61085L9.72079 11.9758C11.5395 13.0671 13.8129 11.703 13.8129 9.61146V6.79242C13.8129 5.79211 13.2673 4.88274 12.4489 4.42806L4.99207 0.335894C3.17333 -0.664413 0.899902 0.699642 0.899902 2.70025Z" fill="#E61212"/>
<path d="M13.8129 9.79327V12.8851C13.8129 13.8854 13.2673 14.7039 12.4489 15.2495L4.99207 19.6145C3.17333 20.7057 0.899902 19.3417 0.899902 17.2501V13.7945C0.899902 12.7942 1.44552 11.8848 2.35489 11.4301L9.81172 7.42891C11.6305 6.42861 13.8129 7.79266 13.8129 9.79327Z" fill="white"/>
<path fill-rule="evenodd" clip-rule="evenodd" d="M5.62842 9.61145L13.449 14.2492C13.7218 13.7945 13.8127 13.3399 13.8127 12.8852V9.79332C13.8127 9.79332 13.8127 9.79332 13.8127 9.70238C13.8127 9.70238 13.8127 9.70238 13.8127 9.61145V6.7924C13.8127 6.24678 13.6309 5.79209 13.449 5.42834L5.62842 9.61145Z" fill="#F99D9D"/>
</svg>
