<svg width="95" height="32" viewBox="0 0 95 32" fill="none" xmlns="http://www.w3.org/2000/svg">
<path d="M0.981934 8.70038V11.2466C0.981934 12.2469 1.52756 13.0654 2.34599 13.611L9.80282 17.9759C11.6216 19.0672 13.895 17.7031 13.895 15.6116V12.7925C13.895 11.7922 13.3494 10.8829 12.5309 10.4282L5.0741 6.33602C3.25536 5.33571 0.981934 6.69976 0.981934 8.70038Z" fill="#E61212"/>
<path d="M13.895 15.7934V18.8853C13.895 19.8856 13.3494 20.704 12.5309 21.2496L5.0741 25.6146C3.25536 26.7058 0.981934 25.3418 0.981934 23.2502V19.7946C0.981934 18.7943 1.52756 17.8849 2.43692 17.4303L9.89375 13.429C11.7125 12.4287 13.895 13.7928 13.895 15.7934Z" fill="white"/>
<path fill-rule="evenodd" clip-rule="evenodd" d="M5.71045 15.6116L13.531 20.2494C13.8038 19.7947 13.8948 19.34 13.8948 18.8853V15.7934C13.8948 15.7934 13.8948 15.7934 13.8948 15.7025C13.8948 15.7025 13.8948 15.7025 13.8948 15.6116V12.7925C13.8948 12.2469 13.7129 11.7922 13.531 11.4285L5.71045 15.6116Z" fill="#F99D9D"/>
<path d="M25.895 21.2994V10.5H28.3411L32.5102 16.5168V10.5H35.4332V21.2994H32.8179L28.6642 15.2826V21.2994H25.895Z" fill="white"/>
<path d="M41.1987 21.5C40.3987 21.5 39.6808 21.3509 39.0449 21.0526C38.409 20.744 37.9014 20.2761 37.5219 19.6487C37.1527 19.0213 36.968 18.2345 36.968 17.2882V16.9797C36.968 16.0746 37.1475 15.3237 37.5065 14.7272C37.8655 14.1307 38.3526 13.6833 38.968 13.385C39.5936 13.0764 40.2859 12.9222 41.0449 12.9222C42.3884 12.9222 43.4038 13.2719 44.0909 13.9712C44.7781 14.6604 45.1217 15.6632 45.1217 16.9797V17.8436H39.3988C39.4193 18.2447 39.5116 18.579 39.6757 18.8464C39.85 19.1138 40.0705 19.3093 40.3372 19.4327C40.6039 19.5458 40.891 19.6024 41.1987 19.6024C41.65 19.6024 42.0038 19.5355 42.2602 19.4018C42.5269 19.2578 42.7012 19.0676 42.7833 18.831H44.9678C44.8037 19.7258 44.3986 20.3943 43.7525 20.8366C43.1063 21.2789 42.2551 21.5 41.1987 21.5ZM41.1218 14.8198C40.8346 14.8198 40.5628 14.8661 40.3064 14.9586C40.05 15.0512 39.8398 15.2055 39.6757 15.4215C39.5218 15.6272 39.4347 15.91 39.4141 16.27H42.7987C42.7987 15.8894 42.7217 15.5963 42.5679 15.3906C42.4141 15.1746 42.2089 15.0255 41.9525 14.9432C41.7064 14.8609 41.4295 14.8198 41.1218 14.8198Z" fill="white"/>
<path d="M47.9364 21.2994L45.6595 13.1227H48.2133L49.3517 18.1522L50.7825 13.1227H52.9978L54.5362 18.1059L55.8131 13.1227H58.1207L55.8439 21.2994H53.4747L51.8748 15.9923L50.3056 21.2994H47.9364Z" fill="white"/>
<path d="M61.8911 21.2994V12.7833H58.5835V10.5H67.9678V12.7833H64.6602V21.2994H61.8911Z" fill="white"/>
<path d="M71.2347 21.5C70.3014 21.5 69.5886 21.2326 69.0963 20.6978C68.604 20.1629 68.3579 19.3504 68.3579 18.2602V13.1227H70.727V17.8899C70.727 18.4247 70.8347 18.831 71.0501 19.1087C71.2757 19.3864 71.6347 19.5252 72.127 19.5252C72.4757 19.5252 72.7629 19.4532 72.9885 19.3093C73.2244 19.1653 73.3988 18.9698 73.5116 18.723C73.6244 18.4762 73.6808 18.1985 73.6808 17.8899V13.1227H76.05V21.2994H73.8654V20.1886C73.65 20.5589 73.3218 20.8726 72.8808 21.1297C72.4501 21.3766 71.9014 21.5 71.2347 21.5Z" fill="white"/>
<path d="M82.3071 21.5C81.6815 21.5 81.1533 21.3663 80.7226 21.0989C80.2918 20.8212 79.9739 20.5178 79.7687 20.1886V21.2994H77.5842V10.5H79.9533V14.1564C80.2303 13.7553 80.5738 13.4518 80.9841 13.2461C81.4046 13.0302 81.8456 12.9222 82.3071 12.9222C83.4558 12.9222 84.3276 13.2616 84.9224 13.9404C85.5173 14.6192 85.8147 15.6323 85.8147 16.9797V17.2882C85.8147 18.2139 85.6712 18.9904 85.384 19.6178C85.0968 20.2349 84.6917 20.7029 84.1686 21.0217C83.6456 21.3406 83.0251 21.5 82.3071 21.5ZM81.7379 19.5407C82.2097 19.5407 82.5994 19.3504 82.9071 18.9698C83.2251 18.579 83.384 18.0185 83.384 17.2882V16.9797C83.384 16.27 83.2302 15.7454 82.9225 15.406C82.6251 15.0563 82.2302 14.8815 81.7379 14.8815C81.4097 14.8815 81.1072 14.9535 80.8302 15.0975C80.5636 15.2312 80.3482 15.4369 80.1841 15.7146C80.0303 15.9923 79.9533 16.3368 79.9533 16.7482V17.5196C79.9533 17.9413 80.0303 18.3065 80.1841 18.615C80.3482 18.9133 80.5636 19.1447 80.8302 19.3093C81.1072 19.4635 81.4097 19.5407 81.7379 19.5407Z" fill="white"/>
<path d="M90.972 21.5C90.1721 21.5 89.4541 21.3509 88.8183 21.0526C88.1824 20.744 87.6747 20.2761 87.2952 19.6487C86.926 19.0213 86.7414 18.2345 86.7414 17.2882V16.9797C86.7414 16.0746 86.9209 15.3237 87.2798 14.7272C87.6388 14.1307 88.126 13.6833 88.7413 13.385C89.367 13.0764 90.0592 12.9222 90.8182 12.9222C92.1618 12.9222 93.1771 13.2719 93.8643 13.9712C94.5514 14.6604 94.895 15.6632 94.895 16.9797V17.8436H89.1721C89.1926 18.2447 89.2849 18.579 89.449 18.8464C89.6234 19.1138 89.8439 19.3093 90.1105 19.4327C90.3772 19.5458 90.6644 19.6024 90.972 19.6024C91.4233 19.6024 91.7772 19.5355 92.0336 19.4018C92.3002 19.2578 92.4746 19.0676 92.5566 18.831H94.7412C94.5771 19.7258 94.172 20.3943 93.5258 20.8366C92.8797 21.2789 92.0284 21.5 90.972 21.5ZM90.8951 14.8198C90.608 14.8198 90.3362 14.8661 90.0798 14.9586C89.8234 15.0512 89.6131 15.2055 89.449 15.4215C89.2952 15.6272 89.208 15.91 89.1875 16.27H92.572C92.572 15.8894 92.4951 15.5963 92.3412 15.3906C92.1874 15.1746 91.9823 15.0255 91.7259 14.9432C91.4797 14.8609 91.2028 14.8198 90.8951 14.8198Z" fill="white"/>
</svg>
