<svg width="24" height="25" viewBox="0 0 24 25" fill="none" xmlns="http://www.w3.org/2000/svg">
<path d="M10.7302 5.57319C11.1449 5.52485 11.5685 5.5 12 5.5C16.664 5.5 20.3999 8.40264 22 12.5C21.6054 13.5104 21.0809 14.4482 20.4447 15.2877M6.51962 7.01944C4.47955 8.26406 2.90111 10.1926 2 12.5C3.60014 16.5974 7.33603 19.5 12 19.5C14.0376 19.5 15.898 18.946 17.4806 17.9804M9.87877 10.3786C9.33582 10.9215 9 11.6715 9 12.5C9 14.1569 10.3431 15.5 12 15.5C12.8285 15.5 13.5785 15.1642 14.1214 14.6212" stroke="#AEB0B4" stroke-linecap="round" stroke-linejoin="round"/>
<path d="M4 4.5L20 20.5" stroke="#AEB0B4" stroke-linecap="round"/>
</svg>
