<svg width="17" height="13" viewBox="0 0 17 13" fill="none" xmlns="http://www.w3.org/2000/svg">
<path d="M13.708 12.3536C13.5128 12.5488 13.1962 12.5488 13.0009 12.3536C12.8057 12.1583 12.8057 11.8417 13.0009 11.6464L13.708 12.3536ZM16.3545 9L16.708 8.64645C16.9033 8.84171 16.9033 9.15829 16.708 9.35355L16.3545 9ZM13.0009 6.35355C12.8057 6.15829 12.8057 5.84171 13.0009 5.64645C13.1962 5.45118 13.5128 5.45118 13.708 5.64645L13.0009 6.35355ZM16.3545 0.5C16.6306 0.5 16.8545 0.723858 16.8545 1C16.8545 1.27614 16.6306 1.5 16.3545 1.5V0.5ZM13.0009 11.6464L16.0009 8.64645L16.708 9.35355L13.708 12.3536L13.0009 11.6464ZM16.0009 9.35355L13.0009 6.35355L13.708 5.64645L16.708 8.64645L16.0009 9.35355ZM16.3545 9.5H5.35449V8.5H16.3545V9.5ZM0.854492 5C0.854492 2.51472 2.86921 0.5 5.35449 0.5V1.5C3.4215 1.5 1.85449 3.067 1.85449 5H0.854492ZM5.35449 9.5C2.86921 9.5 0.854492 7.48528 0.854492 5H1.85449C1.85449 6.933 3.4215 8.5 5.35449 8.5V9.5ZM16.3545 1.5H5.35449V0.5H16.3545V1.5Z" fill="#AEB0B4"/>
</svg>
