<svg width="14" height="14" viewBox="0 0 14 14" fill="none" xmlns="http://www.w3.org/2000/svg">
<path fill-rule="evenodd" clip-rule="evenodd" d="M6.31535 1.33329C3.55392 1.33329 1.31535 3.57187 1.31535 6.33329C1.31535 9.09472 3.55392 11.3333 6.31535 11.3333C7.69615 11.3333 8.94569 10.774 9.85088 9.86883C10.7561 8.96364 11.3153 7.7141 11.3153 6.33329C11.3153 3.57187 9.07677 1.33329 6.31535 1.33329ZM0.648682 6.33329C0.648682 3.20368 3.18573 0.666626 6.31535 0.666626C9.44496 0.666626 11.982 3.20368 11.982 6.33329C11.982 7.77803 11.441 9.09695 10.5511 10.0976L13.2177 12.7643C13.3479 12.8944 13.3479 13.1055 13.2177 13.2357C13.0875 13.3658 12.8765 13.3658 12.7463 13.2357L10.0797 10.569C9.079 11.4589 7.76009 12 6.31535 12C3.18573 12 0.648682 9.46291 0.648682 6.33329Z" fill="#AEB0B4"/>
</svg>
