<svg width="12" height="11" viewBox="0 0 12 11" fill="none" xmlns="http://www.w3.org/2000/svg">
<path d="M11.9765 1.75266C11.5272 1.95047 11.0513 2.08103 10.564 2.14016C11.0771 1.83179 11.4612 1.34819 11.6455 0.778664C11.17 1.05616 10.643 1.25816 10.082 1.37066C9.71188 0.974879 9.22143 0.712375 8.68682 0.623915C8.15221 0.535455 7.60335 0.62599 7.12547 0.88146C6.64759 1.13693 6.26743 1.54304 6.04403 2.03673C5.82062 2.53041 5.76648 3.08405 5.89 3.61166C3.845 3.51516 2.0335 2.53266 0.82 1.04866C0.599397 1.42357 0.484332 1.85118 0.487 2.28616C0.487 3.14116 0.922 3.89266 1.581 4.33416C1.19043 4.32173 0.808486 4.21613 0.467 4.02616V4.05616C0.466778 4.62436 0.663134 5.17513 1.02275 5.61504C1.38237 6.05495 1.88311 6.3569 2.44 6.46966C2.07915 6.56635 1.70121 6.58088 1.334 6.51216C1.49206 7.00117 1.79883 7.42863 2.21151 7.73491C2.62418 8.04119 3.12218 8.21101 3.636 8.22066C2.76576 8.90364 1.69124 9.27432 0.585 9.27316C0.39 9.27316 0.1955 9.26167 0 9.23967C1.12785 9.96183 2.43926 10.3452 3.7785 10.3442C8.305 10.3442 10.7775 6.59616 10.7775 3.35166C10.7775 3.24666 10.7775 3.14166 10.77 3.03666C11.253 2.6891 11.6696 2.25757 12 1.76266L11.9765 1.75266Z" fill="white"/>
</svg>
