<svg width="11" height="11" viewBox="0 0 11 11" fill="none" xmlns="http://www.w3.org/2000/svg">
<path d="M5.93994 5.00909V6.5H9.41428C9.30792 7.33637 9.03627 7.94864 8.62236 8.37864C8.11406 8.9 7.32259 9.46955 5.93994 9.46955C3.80083 9.46955 2.1288 7.7 2.1288 5.50591C2.1288 3.31182 3.80083 1.54227 5.93994 1.54227C7.09215 1.54227 7.93724 2.00909 8.55766 2.60909L9.58002 1.56046C8.7172 0.700001 7.55879 0.0454559 5.93994 0.0454559C3.00935 0.0454559 0.54541 2.49409 0.54541 5.5C0.54541 8.50591 3.00935 10.9545 5.93994 10.9545C7.52334 10.9545 8.7172 10.4214 9.65048 9.42727C10.6077 8.44546 10.909 7.05773 10.909 5.94227C10.909 5.59682 10.8856 5.27546 10.8324 5.00909H5.93994Z" fill="white"/>
</svg>
