<svg width="25" height="24" viewBox="0 0 25 24" fill="none" xmlns="http://www.w3.org/2000/svg">
<rect x="0.354492" width="24" height="24" rx="4" fill="#1E1F21"/>
<path d="M18.331 8.25257C17.8817 8.45038 17.4058 8.58094 16.9185 8.64007C17.4315 8.3317 17.8157 7.8481 18 7.27857C17.5245 7.55607 16.9975 7.75807 16.4365 7.87057C16.0664 7.47479 15.5759 7.21228 15.0413 7.12382C14.5067 7.03536 13.9578 7.1259 13.48 7.38137C13.0021 7.63684 12.6219 8.04295 12.3985 8.53663C12.1751 9.03032 12.121 9.58396 12.2445 10.1116C10.1995 10.0151 8.38799 9.03257 7.17449 7.54857C6.95389 7.92348 6.83882 8.35109 6.84149 8.78607C6.84149 9.64107 7.27649 10.3926 7.93549 10.8341C7.54492 10.8216 7.16298 10.716 6.82149 10.5261V10.5561C6.82127 11.1243 7.01763 11.675 7.37725 12.115C7.73686 12.5549 8.2376 12.8568 8.79449 12.9696C8.43364 13.0663 8.0557 13.0808 7.68849 13.0121C7.84655 13.5011 8.15332 13.9285 8.566 14.2348C8.97867 14.5411 9.47667 14.7109 9.99049 14.7206C9.12026 15.4035 8.04573 15.7742 6.93949 15.7731C6.74449 15.7731 6.54999 15.7616 6.35449 15.7396C7.48235 16.4617 8.79375 16.8451 10.133 16.8441C14.6595 16.8441 17.132 13.0961 17.132 9.85157C17.132 9.74657 17.132 9.64157 17.1245 9.53657C17.6075 9.189 18.0241 8.75748 18.3545 8.26257L18.331 8.25257Z" fill="white"/>
</svg>
